<?xml version="1.0" encoding="UTF-8" standalone="no"?>
<svg
   xmlns:dc="http://purl.org/dc/elements/1.1/"
   xmlns:cc="http://creativecommons.org/ns#"
   xmlns:rdf="http://www.w3.org/1999/02/22-rdf-syntax-ns#"
   xmlns:svg="http://www.w3.org/2000/svg"
   xmlns="http://www.w3.org/2000/svg"
   xmlns:sodipodi="http://sodipodi.sourceforge.net/DTD/sodipodi-0.dtd"
   xmlns:inkscape="http://www.inkscape.org/namespaces/inkscape"
   version="1.1"
   id="Capa_1"
   x="0px"
   y="0px"
   viewBox="0 0 60.364 60.364"
   style="enable-background:new 0 0 60.364 60.364;"
   xml:space="preserve"
   sodipodi:docname="cross.svg"
   inkscape:version="1.0.2-2 (e86c870879, 2021-01-15)"><metadata
   id="metadata11"><rdf:RDF><cc:Work
       rdf:about=""><dc:format>image/svg+xml</dc:format><dc:type
         rdf:resource="http://purl.org/dc/dcmitype/StillImage" /><dc:title></dc:title></cc:Work></rdf:RDF></metadata><defs
   id="defs9" /><sodipodi:namedview
   pagecolor="#ffffff"
   bordercolor="#666666"
   borderopacity="1"
   objecttolerance="10"
   gridtolerance="10"
   guidetolerance="10"
   inkscape:pageopacity="0"
   inkscape:pageshadow="2"
   inkscape:window-width="1224"
   inkscape:window-height="802"
   id="namedview7"
   showgrid="false"
   inkscape:zoom="5.1330619"
   inkscape:cx="43.591101"
   inkscape:cy="34.34232"
   inkscape:window-x="1151"
   inkscape:window-y="540"
   inkscape:window-maximized="0"
   inkscape:current-layer="Capa_1" />
<g
   id="g4"
   transform="rotate(45,30.182001,30.182)">
	<path
   d="M 54.454,23.18 35.845,23.178 35.844,5.91 C 35.845,2.646 33.198,0 29.934,0 26.671,0 24.025,2.646 24.025,5.91 V 23.179 L 5.91,23.178 C 2.646,23.179 0,25.825 0,29.088 c 0.002,3.264 2.646,5.909 5.91,5.909 h 18.115 v 19.457 c 0,3.267 2.646,5.91 5.91,5.91 3.264,0 5.909,-2.646 5.91,-5.908 V 34.997 h 18.611 c 3.262,0 5.908,-2.645 5.908,-5.907 0.003,-3.266 -2.646,-5.912 -5.91,-5.91 z"
   id="path2" />
</g>

</svg>
